<svg height="512" viewBox="0 0 32 32" width="512" xmlns="http://www.w3.org/2000/svg" xmlns:xlink="http://www.w3.org/1999/xlink"><linearGradient id="linear-gradient" gradientUnits="userSpaceOnUse" x1="2.794" x2="25.809" y1="29.867" y2="5.701"><stop offset="0" stop-color="#00a1e2"/><stop offset="1" stop-color="#00e0a5"/></linearGradient><g id="Layer_3" data-name="Layer 3"><path d="m16 1a15 15 0 1 0 15 15 15 15 0 0 0 -15-15zm.643 9.214a5.149 5.149 0 0 1 5.143 5.143h-1.286a3.861 3.861 0 0 0 -3.857-3.857zm4.165 14.786c-.039 0-3.9-.066-8.865-4.943-4.877-4.963-4.943-8.826-4.943-8.865 0-.481 3-4.192 3.663-4.192.23 0 .409.156.605.39.472.562 2.559 3.856 2.463 4.405-.046.258-.265.454-.893.981a7.416 7.416 0 0 0 -.866.8 6.906 6.906 0 0 0 .566 1.526 9.435 9.435 0 0 0 4.362 4.36 6.906 6.906 0 0 0 1.526.566 7.416 7.416 0 0 0 .8-.866c.527-.628.723-.847.981-.893.549-.1 3.843 1.991 4.405 2.463.234.2.39.375.39.605-.002.663-3.713 3.663-4.194 3.663zm2.906-9.643a7.079 7.079 0 0 0 -7.071-7.071v-1.286a8.367 8.367 0 0 1 8.357 8.357z" fill="url(#linear-gradient)"/></g></svg>